<?xml version="1.0" standalone="no"?>
<!DOCTYPE svg PUBLIC "-//W3C//DTD SVG 20010904//EN"
 "http://www.w3.org/TR/2001/REC-SVG-20010904/DTD/svg10.dtd">
<svg version="1.0" xmlns="http://www.w3.org/2000/svg"
 width="791.000000pt" height="791.000000pt" viewBox="0 0 791.000000 791.000000"
 preserveAspectRatio="xMidYMid meet">
<metadata>
Created by potrace 1.14, written by Peter Selinger 2001-2017
</metadata>
<g transform="translate(0.000000,791.000000) scale(0.100000,-0.100000)"
fill="#000000" stroke="none">
<path d="M7061 7434 c0 -6 -7 -11 -13 -11 -11 0 -861 -335 -923 -363 -102 -47
-735 -291 -754 -292 -25 0 -72 8 -100 17 -17 7 -143 32 -193 39 -196 30 -284
37 -573 51 -166 9 -730 9 -830 1 -38 -3 -106 -8 -150 -12 -44 -3 -91 -8 -105
-10 -14 -3 -51 -7 -84 -9 -32 -3 -62 -7 -66 -10 -5 -3 -30 -7 -57 -10 -26 -3
-59 -7 -73 -10 -83 -17 -213 -37 -260 -41 -50 -5 -70 1 -215 59 -88 35 -169
67 -180 72 -11 4 -22 9 -25 9 -15 3 -177 70 -186 77 -6 5 -19 10 -30 12 -10 2
-35 10 -54 18 -156 67 -1031 412 -1035 408 -5 -5 56 -200 65 -209 3 -3 6 -9 7
-15 1 -5 45 -138 98 -295 53 -157 98 -292 100 -300 2 -8 41 -121 85 -250 45
-129 83 -242 85 -250 2 -8 16 -49 30 -90 14 -41 28 -82 30 -90 2 -8 8 -27 13
-41 12 -30 17 -98 9 -119 -8 -22 -27 -84 -32 -106 -2 -10 -32 -111 -65 -224
-58 -197 -67 -227 -75 -260 -2 -8 -4 -15 -5 -15 -1 0 -3 -7 -5 -15 -1 -8 -14
-53 -28 -100 -55 -182 -100 -335 -102 -350 -2 -8 -4 -15 -5 -15 -1 0 -3 -7 -5
-15 -2 -8 -12 -43 -21 -77 l-16 -63 -334 0 -334 0 0 -512 0 -513 248 1 247 2
59 -62 c32 -33 129 -135 215 -225 86 -90 179 -188 206 -216 28 -29 120 -126
205 -215 85 -90 180 -189 210 -220 30 -31 118 -123 195 -204 77 -81 197 -207
267 -279 l127 -132 2 35 c1 37 4 66 15 140 12 88 13 86 119 -190 20 -52 50
-129 66 -170 16 -41 29 -79 29 -83 0 -5 11 -33 25 -63 14 -30 25 -57 25 -60 0
-6 75 -205 90 -239 5 -11 29 -72 53 -136 24 -65 53 -126 63 -137 11 -11 57
-40 104 -65 47 -24 157 -84 245 -132 88 -48 194 -105 235 -127 41 -22 80 -44
85 -48 9 -6 84 -47 225 -121 25 -13 47 -27 50 -30 3 -3 18 -9 33 -13 30 -7 36
-4 292 136 55 30 129 71 165 90 273 147 407 220 420 228 8 6 41 23 72 40 67
35 75 46 121 165 19 50 52 133 72 185 20 52 38 100 39 105 2 6 9 24 15 40 7
17 25 64 41 105 15 41 44 118 64 170 20 52 50 131 67 175 17 44 34 89 39 100
4 11 18 46 30 77 21 55 36 72 38 46 0 -7 3 -29 6 -48 3 -19 8 -61 12 -93 4
-32 10 -60 14 -62 7 -4 86 73 195 190 32 35 234 247 395 415 254 265 390 408
420 439 71 75 396 415 432 451 l36 38 244 -1 243 -1 3 512 2 512 -332 2 -332
3 -22 75 c-12 41 -38 129 -58 195 -20 66 -39 129 -41 140 -3 11 -16 58 -30
105 -15 47 -28 93 -31 103 -2 9 -6 25 -8 35 -3 9 -14 46 -25 82 -23 76 -131
448 -136 470 -2 8 -7 29 -11 45 -12 43 -11 47 78 310 126 377 228 679 235 695
3 8 7 20 8 25 2 6 19 57 40 115 20 58 38 110 39 115 2 6 5 17 8 25 23 61 51
146 53 159 2 9 4 18 5 21 1 3 2 8 1 13 0 4 4 7 11 7 6 0 9 3 5 6 -3 3 6 35 19
71 14 36 23 73 21 82 -3 9 -5 11 -6 5z m-5065 -893 c49 -16 168 -57 264 -91
96 -34 180 -63 185 -64 6 -2 17 -6 25 -9 8 -3 104 -36 213 -73 l198 -67 97 16
c53 9 108 19 122 22 54 10 76 14 110 19 19 3 46 8 60 11 14 3 41 7 60 10 19 3
58 9 85 15 28 5 64 12 80 15 17 2 41 7 55 10 14 2 39 7 55 10 17 3 98 17 180
32 158 28 379 37 510 20 33 -4 78 -10 100 -12 22 -3 51 -7 65 -10 14 -3 41 -7
60 -10 19 -3 46 -7 60 -10 14 -3 41 -8 60 -11 19 -3 67 -11 105 -19 39 -7 97
-18 130 -24 33 -6 71 -13 85 -16 14 -3 41 -8 60 -11 19 -3 91 -16 160 -30 69
-13 136 -24 150 -24 14 0 104 27 200 61 216 75 374 130 505 174 55 19 140 48
189 65 48 17 90 30 91 28 3 -3 -139 -355 -176 -435 -10 -24 -19 -45 -19 -48 0
-4 -67 -167 -96 -232 -8 -17 -14 -34 -14 -38 0 -3 -11 -30 -24 -58 -13 -29
-33 -77 -45 -107 -54 -132 -184 -448 -196 -475 -31 -69 -44 -105 -36 -105 4 0
40 23 80 50 40 28 76 50 81 50 5 0 10 4 12 8 3 8 286 202 294 202 2 0 7 -15
12 -32 5 -18 53 -177 107 -353 53 -176 98 -327 100 -335 2 -8 11 -37 19 -65 9
-27 16 -53 16 -57 0 -5 -1044 -8 -2320 -8 -1432 0 -2320 4 -2320 9 0 5 5 22
11 38 6 15 12 35 14 43 2 8 35 121 75 250 39 129 73 242 75 251 5 23 77 253
80 257 2 2 77 -47 167 -108 218 -150 299 -203 303 -198 3 3 -164 416 -195 483
-5 11 -75 180 -156 375 -80 195 -165 402 -189 460 -24 58 -51 122 -59 143 -9
20 -15 37 -12 37 2 0 43 -13 92 -29z m464 -3036 c0 -2 -29 -209 -36 -258 -3
-21 -7 -53 -9 -70 -9 -81 -17 -147 -26 -202 -5 -33 -9 -64 -9 -69 0 -5 -32 24
-70 65 -70 73 -253 268 -318 338 -19 20 -62 65 -95 101 -34 36 -68 73 -75 81
-11 15 17 16 313 16 179 -1 325 -1 325 -2z m3270 -1 c0 -4 -52 -118 -109 -237
-34 -71 -61 -130 -61 -131 0 -2 -26 -59 -59 -127 -49 -105 -145 -311 -273
-589 -59 -127 -96 -206 -136 -290 -22 -47 -65 -139 -95 -205 -30 -66 -79 -169
-107 -230 -56 -119 -93 -197 -141 -302 -43 -94 -53 -103 -110 -103 -26 0 -50
4 -53 8 -5 8 17 96 54 222 11 35 18 65 16 67 -1 2 -248 2 -548 1 l-545 -3 32
-115 c18 -63 36 -130 39 -147 l8 -33 -56 0 c-69 0 -63 -8 -195 277 -56 123
-126 273 -155 335 -29 62 -108 232 -175 378 -67 146 -127 273 -131 282 -9 16
-126 266 -180 383 -50 108 -162 347 -224 480 -18 39 -32 73 -30 76 3 5 3234 9
3234 3z m680 0 c0 -1 -15 -18 -32 -36 -18 -19 -66 -70 -107 -114 -40 -43 -126
-135 -191 -204 -64 -69 -142 -152 -173 -185 -30 -33 -59 -57 -62 -53 -4 3 -9
25 -11 47 -2 23 -6 53 -9 68 -3 16 -8 51 -11 78 -3 28 -7 64 -10 80 -2 17 -6
50 -9 75 -4 41 -21 159 -31 221 l-4 26 325 0 c179 0 325 -1 325 -3z"/>
</g>
</svg>
